<?xml version="1.0" encoding="utf-8"?>
<!-- Generator: Adobe Illustrator 17.0.0, SVG Export Plug-In . SVG Version: 6.00 Build 0)  -->
<!DOCTYPE svg PUBLIC "-//W3C//DTD SVG 1.1//EN" "http://www.w3.org/Graphics/SVG/1.1/DTD/svg11.dtd">
<svg version="1.1" id="Ebene_1" xmlns="http://www.w3.org/2000/svg" xmlns:xlink="http://www.w3.org/1999/xlink" x="0px" y="0px"
	 width="642.857px" height="708.921px" viewBox="0 0 642.857 708.921" enable-background="new 0 0 642.857 708.921"
	 xml:space="preserve">
<ellipse fill="#FFFFFF" stroke="#7DB928" stroke-width="10" stroke-miterlimit="10" cx="285.25" cy="273.901" rx="267.253" ry="264.29"/>
<g>
	
		<ellipse transform="matrix(-0.0109 -0.9999 0.9999 -0.0109 100.7481 685.3678)" fill="#FFFFFF" cx="389.328" cy="292.858" rx="238.447" ry="236.519"/>
	<path fill="#DD6850" d="M386.73,53.626c0,0,1.457,0.018,4.28,0.054c1.412,0.018,3.165,0.04,5.248,0.066
		c1.043,0.03,2.163-0.01,3.373,0.08c1.209,0.077,2.5,0.159,3.87,0.246c10.959,0.571,27.055,2.06,46.979,7.064
		c2.484,0.64,5.051,1.247,7.657,1.963c2.586,0.792,5.235,1.604,7.948,2.435c2.741,0.758,5.45,1.809,8.257,2.789
		c2.799,1.001,5.684,1.969,8.527,3.209c11.563,4.511,23.724,10.383,36.074,17.83c12.343,7.448,24.876,16.492,36.994,27.369
		c0.762,0.676,1.526,1.354,2.292,2.034c0.734,0.714,1.47,1.43,2.209,2.149c1.477,1.441,2.962,2.891,4.457,4.35
		c1.525,1.433,2.942,2.985,4.382,4.535c1.443,1.55,2.895,3.108,4.354,4.676c0.745,0.773,1.442,1.589,2.132,2.417
		c0.696,0.823,1.395,1.648,2.095,2.475c1.398,1.66,2.804,3.329,4.218,5.008c1.326,1.749,2.66,3.507,4.001,5.274
		c0.67,0.885,1.342,1.773,2.016,2.663c0.681,0.885,1.351,1.782,1.969,2.719c10.336,14.677,19.463,31.203,26.55,49.289l0.687,1.688
		l0.611,1.721c0.407,1.149,0.815,2.3,1.224,3.454c0.803,2.312,1.677,4.613,2.399,6.973c0.695,2.368,1.394,4.746,2.095,7.133
		c0.35,1.194,0.7,2.39,1.051,3.588c0.293,1.214,0.587,2.43,0.881,3.648c0.579,2.439,1.161,4.887,1.744,7.345
		c0.543,2.466,0.938,4.972,1.414,7.47c0.228,1.251,0.457,2.504,0.687,3.76l0.337,1.886l0.252,1.903
		c0.325,2.54,0.651,5.089,0.978,7.646c0.378,2.551,0.509,5.137,0.718,7.723c0.184,2.587,0.42,5.18,0.56,7.785
		c0.055,2.609,0.11,5.226,0.165,7.851c0.027,1.312,0.053,2.626,0.08,3.941c0,0.007,0.012,0.536,0.003,0.658l-0.014,0.481
		l-0.029,0.962l-0.057,1.925c-0.088,2.569-0.176,5.146-0.264,7.731c-0.014,1.268-0.189,2.659-0.284,3.989
		c-0.114,1.344-0.228,2.689-0.342,4.037c-0.347,5.426-1.193,10.7-1.904,16.047c-1.741,10.638-4.018,21.307-7.277,31.789
		c-1.453,5.29-3.427,10.444-5.24,15.66c-0.965,2.588-2.072,5.131-3.104,7.703l-1.577,3.851c-0.563,1.269-1.169,2.522-1.753,3.785
		c-18.41,40.526-48.489,76.965-86.627,103.374c-9.536,6.599-19.613,12.468-30.014,17.786c-2.631,1.27-5.264,2.542-7.898,3.814
		c-1.305,0.666-2.672,1.192-4.016,1.774l-4.047,1.714l-4.054,1.709l-4.133,1.514l-4.138,1.514c-1.381,0.502-2.753,1.034-4.166,1.441
		l-8.417,2.667c-1.396,0.477-2.832,0.808-4.254,1.193l-4.277,1.125l-4.282,1.125l-4.332,0.913c-2.894,0.58-5.773,1.272-8.689,1.759
		c-11.644,2.111-23.462,3.265-35.327,3.799l-8.857,0.075c-1.469-0.009-2.889,0.073-4.398-0.011l-4.496-0.19l-4.501-0.194
		l-2.252-0.098c-0.746-0.051-1.482-0.134-2.223-0.199l-8.89-0.837c-2.961-0.307-5.895-0.821-8.846-1.224l-4.421-0.649l-4.382-0.864
		l-4.383-0.866c-1.459-0.299-2.932-0.545-4.368-0.937l-8.667-2.174c-1.452-0.34-2.866-0.807-4.289-1.243l-4.266-1.319l-4.266-1.321
		l-4.195-1.521l-4.193-1.529c-1.393-0.521-2.809-0.986-4.166-1.593c-2.741-1.155-5.48-2.31-8.216-3.463
		c-1.383-0.548-2.706-1.224-4.042-1.871l-4.002-1.95l-3.999-1.953l-3.898-2.139l-3.895-2.14c-1.296-0.717-2.608-1.405-3.854-2.204
		c-2.522-1.549-5.042-3.096-7.56-4.642c-1.277-0.747-2.467-1.624-3.694-2.443l-3.656-2.495l-3.642-2.51l-3.519-2.671l-3.515-2.671
		c-1.172-0.889-2.352-1.767-3.461-2.732c-2.252-1.888-4.502-3.773-6.749-5.656c-2.233-1.9-4.33-3.948-6.497-5.913l-3.216-2.982
		l-3.075-3.119l-3.07-3.117c-1.019-1.042-2.063-2.06-3.012-3.164c-1.942-2.169-3.881-4.336-5.817-6.498
		c-0.99-1.064-1.882-2.209-2.8-3.33l-2.741-3.372l-2.736-3.37c-0.878-1.148-1.72-2.322-2.581-3.48
		c-1.697-2.335-3.456-4.622-5.086-6.993c-1.589-2.4-3.175-4.796-4.758-7.188l-1.186-1.794c-0.382-0.606-0.737-1.228-1.107-1.841
		l-2.195-3.688c-1.451-2.463-2.967-4.885-4.254-7.429c-1.336-2.517-2.67-5.029-4.001-7.535c-1.25-2.547-2.429-5.125-3.641-7.68
		c-0.596-1.282-1.215-2.553-1.79-3.841l-1.614-3.909c-1.056-2.61-2.185-5.188-3.171-7.813c-1.865-5.289-3.866-10.513-5.328-15.881
		c-3.291-10.626-5.575-21.431-7.333-32.178c-0.719-5.4-1.571-10.755-1.917-16.134c-0.206-2.684-0.51-5.356-0.631-8.029
		c-0.092-2.675-0.183-5.342-0.274-8l-0.061-1.993l-0.03-0.995l-0.015-0.497c-0.009-0.122,0.003-0.729,0.003-0.699
		c0.025-1.281,0.049-2.56,0.074-3.837c0.049-2.554,0.098-5.1,0.147-7.637c0.133-2.621,0.345-5.311,0.518-7.948
		c0.194-2.642,0.316-5.308,0.677-7.858c0.311-2.573,0.622-5.138,0.931-7.693l0.238-1.914l0.324-1.898
		c0.22-1.263,0.44-2.525,0.66-3.784c0.459-2.514,0.836-5.033,1.362-7.514c0.56-2.474,1.118-4.938,1.674-7.393
		c0.279-1.227,0.558-2.451,0.836-3.673c0.336-1.208,0.672-2.413,1.007-3.616c0.672-2.404,1.341-4.8,2.008-7.185
		c0.694-2.377,1.539-4.698,2.309-7.029c0.393-1.163,0.786-2.324,1.177-3.482l0.587-1.735l0.665-1.703
		c6.846-18.24,15.722-34.945,25.822-49.822c0.602-0.949,1.257-1.859,1.924-2.758c0.659-0.903,1.316-1.804,1.971-2.703
		c1.311-1.794,2.616-3.578,3.913-5.352c1.384-1.707,2.761-3.405,4.13-5.093c0.685-0.842,1.369-1.681,2.05-2.518
		c0.675-0.841,1.358-1.672,2.089-2.46c1.432-1.597,2.855-3.185,4.27-4.764c1.412-1.579,2.801-3.159,4.3-4.623
		c1.468-1.489,2.928-2.968,4.378-4.438c0.725-0.733,1.449-1.464,2.17-2.192c0.754-0.695,1.506-1.388,2.255-2.079
		c11.901-11.136,24.263-20.431,36.448-28.151c12.197-7.713,24.237-13.847,35.706-18.61c2.818-1.302,5.684-2.332,8.462-3.393
		c2.786-1.04,5.474-2.149,8.2-2.966c2.696-0.889,5.33-1.756,7.899-2.603c2.592-0.771,5.147-1.433,7.618-2.125
		c19.82-5.422,35.907-7.237,46.828-8.021c1.366-0.114,2.653-0.221,3.859-0.321c1.205-0.113,2.336-0.096,3.38-0.146
		c2.09-0.067,3.848-0.124,5.264-0.169l4.298-0.138L386.73,53.626z M386.722,55.226c-0.024,0.001-1.47,0.06-4.258,0.174
		c-1.406,0.057-3.151,0.128-5.226,0.213c-1.036,0.059-2.159,0.051-3.354,0.173c-1.196,0.11-2.472,0.228-3.828,0.352
		c-10.826,0.89-26.782,3.016-46.149,9.101c-9.718,2.893-20.143,7.134-31.107,12.416c-2.706,1.401-5.513,2.728-8.279,4.264
		c-2.746,1.569-5.544,3.167-8.393,4.795c-2.784,1.735-5.575,3.57-8.432,5.393c-1.445,0.885-2.817,1.912-4.224,2.909
		c-1.402,1.001-2.816,2.009-4.241,3.026c-11.292,8.273-22.506,18.119-33.108,29.565c-10.626,11.414-20.66,24.432-29.442,38.99
		c-8.807,14.537-16.417,30.564-22.411,47.781c-5.98,17.224-9.978,35.747-11.839,54.99c-0.322,2.416-0.391,4.778-0.546,7.166
		c-0.132,2.396-0.309,4.753-0.413,7.201c-0.023,2.538-0.046,5.084-0.069,7.638c-0.012,1.277-0.023,2.556-0.035,3.837
		c0.046,1.168,0.092,2.338,0.139,3.51c0.094,2.478,0.189,4.964,0.283,7.457c0.115,2.492,0.41,4.978,0.605,7.479
		c0.323,5.011,1.139,9.993,1.81,15.02c0.091,0.627,0.161,1.258,0.27,1.884l0.356,1.872l0.705,3.753l0.696,3.765
		c0.12,0.627,0.222,1.259,0.357,1.884l0.444,1.868c0.591,2.493,1.183,4.993,1.777,7.498c0.271,1.26,0.635,2.497,1.002,3.734
		l1.081,3.723c1.337,5.005,3.16,9.879,4.799,14.842c0.881,2.459,1.902,4.873,2.847,7.322l1.445,3.668
		c0.518,1.209,1.079,2.401,1.617,3.604c1.096,2.398,2.155,4.821,3.284,7.216c1.207,2.358,2.417,4.72,3.63,7.087
		c1.16,2.397,2.547,4.675,3.867,6.996l1.997,3.478c0.336,0.578,0.659,1.166,1.007,1.738l1.085,1.692
		c1.446,2.259,2.894,4.521,4.345,6.788c1.494,2.238,3.099,4.407,4.643,6.624c0.784,1.1,1.549,2.216,2.35,3.307l2.502,3.201
		l2.505,3.209c0.839,1.068,1.652,2.16,2.562,3.172c1.775,2.062,3.554,4.128,5.334,6.197c0.869,1.055,1.83,2.026,2.768,3.021
		l2.823,2.979l2.827,2.986l2.966,2.854c2,1.882,3.929,3.849,5.992,5.673c8.165,7.408,16.98,14.152,26.14,20.478
		c9.218,6.255,18.997,11.727,29.064,16.7c2.546,1.185,5.095,2.371,7.645,3.557c1.263,0.625,2.585,1.109,3.885,1.649l3.915,1.592
		l3.921,1.59l3.996,1.396l4,1.4c1.335,0.464,2.662,0.96,4.027,1.329l8.138,2.439c1.35,0.44,2.737,0.734,4.112,1.082l4.133,1.017
		l4.138,1.02l4.185,0.81c2.796,0.512,5.578,1.14,8.393,1.562l8.466,1.194c0.706,0.096,1.414,0.209,2.118,0.291l2.108,0.188
		l4.221,0.379l4.227,0.383c1.397,0.15,2.896,0.136,4.34,0.212l8.628,0.329l8.586-0.118c1.431-0.041,2.868,0.009,4.295-0.105
		l4.287-0.279l4.29-0.278l2.146-0.138c0.713-0.065,1.423-0.161,2.135-0.239l8.544-0.997c2.844-0.369,5.654-0.944,8.485-1.404
		l4.24-0.734l4.195-0.945l4.197-0.944c1.396-0.325,2.808-0.595,4.18-1.012l8.284-2.313c1.388-0.364,2.735-0.854,4.092-1.312
		l4.068-1.385l4.068-1.384l3.993-1.579l3.99-1.583c1.325-0.538,2.675-1.021,3.963-1.643c2.604-1.185,5.206-2.369,7.805-3.552
		c1.315-0.563,2.568-1.25,3.834-1.909l3.794-1.984l3.792-1.983l3.688-2.164l3.686-2.161c1.228-0.721,2.466-1.425,3.638-2.232
		c2.375-1.566,4.748-3.13,7.119-4.693c1.204-0.755,2.319-1.636,3.472-2.462l3.434-2.509l3.418-2.524l3.29-2.681l3.287-2.677
		c1.096-0.89,2.201-1.77,3.232-2.733c2.096-1.888,4.19-3.773,6.281-5.656c8.13-7.78,15.794-15.971,22.652-24.727
		c13.703-17.512,24.634-36.763,32.474-56.753c0.496-1.247,1.015-2.482,1.491-3.733l1.315-3.791c0.858-2.53,1.79-5.024,2.581-7.56
		c1.465-5.11,3.094-10.136,4.212-15.278l0.922-3.825c0.313-1.271,0.624-2.541,0.841-3.831c0.485-2.565,0.969-5.125,1.451-7.677
		l0.362-1.911c0.108-0.639,0.182-1.284,0.275-1.924c0.177-1.282,0.353-2.563,0.529-3.842c0.18-1.277,0.36-2.553,0.539-3.827
		l0.274-1.908c0.081-0.637,0.124-1.279,0.188-1.917c0.451-5.107,1.046-10.205,1.14-15.181c0.053-1.248,0.106-2.494,0.159-3.738
		c0.035-1.259,0.151-2.448,0.11-3.767c-0.015-2.586-0.031-5.164-0.046-7.735l-0.003-1.926l-0.001-0.962l-0.001-0.481
		c0.004-0.199-0.013,0.004-0.019-0.303c-0.065-1.245-0.131-2.487-0.196-3.728c-0.129-2.48-0.257-4.952-0.385-7.416
		c-0.208-2.458-0.472-4.902-0.702-7.34c-0.25-2.436-0.42-4.873-0.833-7.272c-0.354-2.405-0.706-4.802-1.057-7.191l-0.255-1.791
		l-0.339-1.773c-0.23-1.18-0.459-2.359-0.688-3.535c-0.477-2.348-0.868-4.705-1.407-7.021c-0.563-2.31-1.124-4.612-1.683-6.905
		c-0.276-1.147-0.551-2.292-0.826-3.435c-0.332-1.128-0.663-2.253-0.993-3.376c-0.659-2.247-1.316-4.485-1.97-6.715
		c-0.3-1.123-0.742-2.199-1.103-3.297c-0.374-1.095-0.747-2.188-1.119-3.278c-0.372-1.091-0.743-2.179-1.113-3.266l-0.554-1.628
		l-0.63-1.596c-6.527-17.082-14.597-32.919-23.807-47.235c-9.187-14.335-19.537-27.123-30.458-38.274
		c-10.874-11.208-22.33-20.785-33.808-28.811c-1.449-0.985-2.885-1.963-4.311-2.932c-1.429-0.965-2.825-1.962-4.291-2.815
		c-2.899-1.76-5.732-3.532-8.557-5.205c-2.887-1.565-5.722-3.102-8.503-4.609c-2.802-1.474-5.64-2.74-8.377-4.081
		c-11.086-5.039-21.609-9.046-31.395-11.718c-19.505-5.642-35.532-7.392-46.351-8.019c-1.356-0.092-2.633-0.178-3.829-0.26
		c-1.195-0.094-2.326-0.059-3.366-0.092c-2.083-0.034-3.836-0.063-5.248-0.086C388.303,55.252,386.858,55.228,386.722,55.226z"/>
</g>
<g>
	<ellipse fill="#FFFFFF" cx="325.729" cy="356.117" rx="260.182" ry="263.099"/>
	<path fill="#016734" d="M325.706,620.116c0,0-1.605-0.038-4.715-0.111c-1.555-0.037-3.486-0.082-5.781-0.136
		c-1.148-0.046-2.383-0.014-3.715-0.13c-1.331-0.099-2.752-0.206-4.261-0.318c-12.068-0.765-29.782-2.608-51.671-8.378
		c-2.728-0.738-5.551-1.431-8.411-2.264c-2.839-0.905-5.749-1.833-8.727-2.783c-3.011-0.868-5.979-2.073-9.061-3.183
		c-1.537-0.567-3.091-1.14-4.662-1.719c-1.586-0.544-3.108-1.287-4.691-1.932c-12.68-5.128-26.01-11.748-39.515-20.129
		c-13.501-8.377-27.189-18.517-40.395-30.671c-0.831-0.755-1.664-1.512-2.5-2.271c-0.8-0.796-1.603-1.595-2.408-2.396
		c-1.612-1.605-3.234-3.22-4.865-4.844c-1.666-1.597-3.2-3.333-4.771-5.057c-1.567-1.73-3.144-3.47-4.729-5.22
		c-0.811-0.861-1.552-1.785-2.307-2.702c-0.755-0.917-1.513-1.837-2.272-2.76c-1.516-1.851-3.04-3.712-4.573-5.583
		c-1.438-1.946-2.884-3.902-4.337-5.869c-0.727-0.985-1.456-1.972-2.187-2.962l-1.098-1.488l-1.03-1.54
		c-11.19-16.319-21.024-34.659-28.59-54.69c-0.242-0.624-0.503-1.241-0.73-1.872l-0.651-1.905c-0.434-1.272-0.869-2.546-1.305-3.823
		c-0.853-2.559-1.794-5.105-2.548-7.718c-0.736-2.619-1.475-5.249-2.216-7.889c-0.369-1.321-0.739-2.644-1.109-3.969
		c-0.307-1.342-0.614-2.686-0.922-4.033c-0.607-2.696-1.216-5.402-1.828-8.118c-0.56-2.726-0.968-5.493-1.46-8.252
		c-0.236-1.382-0.472-2.766-0.709-4.152c-0.114-0.694-0.247-1.386-0.344-2.083l-0.253-2.1c-0.326-2.803-0.653-5.617-0.981-8.44
		c-0.384-2.817-0.492-5.669-0.692-8.521c-0.17-2.854-0.399-5.714-0.519-8.587c-0.028-2.876-0.056-5.761-0.084-8.655
		c-0.013-1.446-0.026-2.894-0.039-4.345c0-0.008-0.007-0.595,0.005-0.728l0.022-0.529l0.043-1.059l0.087-2.121
		c0.125-2.829,0.251-5.667,0.376-8.514c0.029-1.397,0.235-2.927,0.354-4.393c0.139-1.48,0.279-2.962,0.418-4.447
		c0.431-5.98,1.451-11.782,2.306-17.665c0.114-0.734,0.211-1.47,0.34-2.203l0.439-2.19c0.295-1.46,0.59-2.921,0.886-4.385
		c0.299-1.462,0.598-2.926,0.897-4.391l0.457-2.197l0.557-2.179c0.744-2.903,1.491-5.814,2.239-8.731
		c0.194-0.727,0.36-1.461,0.576-2.183l0.669-2.162c0.446-1.441,0.893-2.884,1.34-4.328c1.666-5.813,3.889-11.473,5.953-17.199
		c1.081-2.846,2.339-5.632,3.504-8.455l1.783-4.226c0.622-1.398,1.314-2.768,1.969-4.154
		c20.726-44.461,54.219-84.318,96.501-113.053c10.582-7.165,21.732-13.553,33.251-19.3c2.915-1.367,5.832-2.735,8.751-4.104
		c1.447-0.716,2.954-1.292,4.444-1.911l4.48-1.838l4.479-1.855l4.568-1.632l4.573-1.633c1.528-0.536,3.04-1.123,4.602-1.557
		l9.304-2.85c1.543-0.51,3.127-0.869,4.699-1.273l4.726-1.193l4.731-1.193l4.784-0.962l4.79-0.954
		c1.601-0.293,3.187-0.693,4.805-0.891c12.857-2.196,25.894-3.341,38.978-3.791l9.762,0.02l2.409,0.005
		c0.799-0.006,1.604,0,2.438,0.06l4.955,0.262l4.96,0.267l2.482,0.135l2.448,0.248l9.789,1.029c1.638,0.133,3.246,0.468,4.871,0.697
		l4.864,0.763l4.865,0.773l4.819,1.006l4.821,1.009c1.606,0.344,3.223,0.642,4.802,1.092l9.527,2.505
		c1.597,0.391,3.146,0.935,4.71,1.429l4.686,1.508l4.686,1.511l4.603,1.737l4.602,1.739c1.531,0.586,3.08,1.131,4.569,1.816
		c3.006,1.309,6.011,2.617,9.013,3.924c1.518,0.621,2.961,1.397,4.429,2.119l4.39,2.196l4.383,2.206l4.273,2.403l4.27,2.404
		c1.426,0.797,2.851,1.594,4.214,2.491c2.758,1.745,5.513,3.489,8.265,5.231c10.818,7.26,21.163,15.154,30.816,23.762
		c2.423,2.139,4.716,4.414,7.076,6.613c1.166,1.114,2.355,2.204,3.498,3.337l3.347,3.48l3.342,3.478
		c1.116,1.156,2.237,2.307,3.271,3.535c2.111,2.418,4.22,4.832,6.325,7.242c1.079,1.185,2.031,2.471,3.035,3.715l2.976,3.754
		l2.971,3.751l2.791,3.877c1.836,2.599,3.755,5.137,5.505,7.783c1.719,2.667,3.436,5.33,5.149,7.987l1.283,1.994l1.189,2.049
		l2.37,4.095c1.573,2.731,3.197,5.429,4.583,8.249c1.44,2.792,2.877,5.579,4.311,8.36c1.331,2.831,2.606,5.683,3.906,8.517
		c0.637,1.422,1.312,2.827,1.916,4.26l1.728,4.33c1.128,2.892,2.347,5.745,3.388,8.656c1.992,5.853,4.119,11.641,5.662,17.577
		c3.483,11.757,5.868,23.695,7.663,35.566c0.727,5.961,1.594,11.876,1.91,17.808c0.194,2.962,0.497,5.91,0.595,8.858
		c0.068,2.949,0.136,5.89,0.204,8.822l0.043,2.197l0.021,1.097l0.01,0.548c0.008,0.133-0.012,0.812-0.012,0.775
		c-0.043,1.411-0.085,2.819-0.128,4.226c-0.085,2.813-0.17,5.617-0.254,8.412c-0.175,2.886-0.443,5.85-0.665,8.756
		c-0.248,2.91-0.41,5.85-0.838,8.656c-0.374,2.833-0.746,5.656-1.117,8.469l-0.285,2.107c-0.108,0.7-0.252,1.393-0.376,2.089
		c-0.258,1.39-0.515,2.778-0.772,4.163c-0.534,2.766-0.984,5.537-1.585,8.267c-0.646,2.72-1.289,5.43-1.93,8.13
		c-0.321,1.349-0.642,2.696-0.962,4.04c-0.384,1.328-0.767,2.653-1.149,3.975c-0.768,2.643-1.533,5.275-2.295,7.897
		c-0.782,2.615-1.746,5.162-2.62,7.724c-0.447,1.278-0.893,2.552-1.337,3.825l-0.667,1.906c-0.232,0.631-0.499,1.248-0.746,1.872
		c-7.743,20.033-17.704,38.352-28.991,54.645l-1.038,1.538l-1.106,1.486c-0.736,0.988-1.471,1.974-2.203,2.957
		c-1.464,1.963-2.921,3.916-4.369,5.858c-1.544,1.867-3.079,3.724-4.605,5.57c-0.765,0.92-1.528,1.838-2.288,2.753
		c-0.76,0.915-1.506,1.835-2.322,2.694c-1.596,1.745-3.182,3.479-4.76,5.204c-1.581,1.719-3.114,3.459-4.784,5.054
		c-1.635,1.624-3.26,3.239-4.875,4.843c-0.807,0.801-1.611,1.599-2.413,2.395c-0.838,0.759-1.672,1.516-2.505,2.27
		c-13.233,12.15-26.955,22.267-40.464,30.647c-13.52,8.378-26.861,14.996-39.55,20.123c-1.585,0.645-3.107,1.387-4.695,1.93
		c-1.572,0.579-3.127,1.152-4.665,1.718c-3.084,1.109-6.054,2.312-9.067,3.18c-2.981,0.948-5.893,1.874-8.734,2.778
		c-2.862,0.831-5.687,1.522-8.417,2.258c-21.899,5.75-39.645,7.564-51.687,8.3c-1.507,0.109-2.926,0.212-4.255,0.308
		c-1.328,0.112-2.575,0.078-3.725,0.121c-2.303,0.049-4.241,0.09-5.802,0.123l-4.737,0.1L325.706,620.116z M325.735,618.316
		c0.045-0.001,1.637-0.049,4.692-0.141c1.549-0.046,3.473-0.104,5.759-0.173c1.142-0.053,2.379-0.029,3.697-0.152
		c1.319-0.107,2.726-0.222,4.221-0.343c11.935-0.855,29.537-3.02,50.933-9.521c10.732-3.09,22.261-7.649,34.386-13.369
		c1.502-0.744,3.02-1.496,4.553-2.256c1.523-0.778,3.101-1.477,4.606-2.364c3.04-1.7,6.137-3.433,9.292-5.198
		c3.057-1.92,6.17-3.875,9.336-5.864c1.601-0.959,3.113-2.092,4.676-3.17c1.554-1.088,3.121-2.186,4.7-3.292
		c12.51-9.011,24.945-19.757,36.72-32.27c11.804-12.474,22.964-26.723,32.761-42.677c9.832-15.926,18.362-33.498,25.137-52.393
		c6.748-18.907,11.358-39.254,13.622-60.421c0.382-2.657,0.482-5.254,0.682-7.882c0.173-2.636,0.396-5.227,0.538-7.923
		c0.055-2.796,0.111-5.601,0.167-8.414c0.028-1.407,0.056-2.816,0.084-4.227c-0.037-1.285-0.074-2.573-0.111-3.862
		c-0.074-2.73-0.148-5.467-0.222-8.213c-0.095-2.745-0.39-5.486-0.573-8.241c-0.295-5.521-1.127-11.017-1.805-16.559
		c-0.091-0.692-0.165-1.387-0.271-2.078l-0.368-2.065c-0.242-1.378-0.485-2.759-0.728-4.14c-0.239-1.383-0.478-2.767-0.718-4.154
		l-0.366-2.08l-0.465-2.062c-0.619-2.752-1.239-5.512-1.861-8.278c-0.161-0.69-0.296-1.388-0.479-2.073l-0.571-2.052l-1.142-4.113
		c-1.408-5.527-3.34-10.921-5.083-16.405c-0.925-2.723-2.025-5.391-3.031-8.101l-1.542-4.058c-0.542-1.343-1.153-2.659-1.726-3.992
		c-1.168-2.658-2.339-5.322-3.512-7.992c-1.297-2.612-2.597-5.229-3.9-7.851c-1.246-2.653-2.727-5.188-4.156-7.758l-2.151-3.856
		l-1.077-1.931l-1.171-1.877c-1.561-2.506-3.124-5.017-4.691-7.533c-1.6-2.494-3.347-4.897-5.012-7.361l-2.534-3.678l-2.71-3.559
		l-2.714-3.567c-0.916-1.182-1.779-2.408-2.769-3.533c-1.926-2.295-3.855-4.594-5.786-6.896c-0.943-1.172-1.973-2.268-2.998-3.37
		l-3.067-3.319l-3.07-3.327c-1.051-1.084-2.147-2.124-3.219-3.19c-2.172-2.103-4.278-4.286-6.511-6.336
		c-8.892-8.261-18.477-15.84-28.485-22.914c-10.084-6.975-20.734-13.194-31.744-18.82c-2.787-1.339-5.576-2.68-8.367-4.021
		c-1.383-0.704-2.826-1.268-4.252-1.875l-4.288-1.805l-4.293-1.81l-4.38-1.591l-4.385-1.595c-1.465-0.524-2.915-1.099-4.414-1.523
		l-8.926-2.794c-1.48-0.502-3.001-0.854-4.511-1.251l-4.537-1.175l-4.542-1.179l-4.596-0.951l-4.602-0.947
		c-1.539-0.291-3.062-0.69-4.617-0.887l-9.306-1.425l-2.329-0.35l-2.318-0.234l-4.641-0.471l-4.648-0.476
		c-0.765-0.095-1.564-0.139-2.371-0.171l-2.406-0.118l-9.498-0.472l-9.456,0.023c-1.576,0.027-3.158-0.047-4.731,0.063l-4.724,0.254
		l-4.728,0.253l-2.365,0.126l-2.354,0.24l-9.421,0.994c-1.576,0.132-3.122,0.466-4.684,0.693l-4.676,0.755l-4.677,0.762
		l-4.631,0.992l-4.633,0.991c-1.543,0.337-3.098,0.628-4.614,1.07l-9.15,2.449c-12.086,3.639-23.963,7.986-35.353,13.358
		c-1.454,0.606-2.833,1.367-4.239,2.071l-4.201,2.144l-4.194,2.15l-4.085,2.343l-4.083,2.341c-1.364,0.774-2.726,1.551-4.026,2.427
		c-2.633,1.699-5.263,3.397-7.891,5.093c-2.609,1.724-5.101,3.614-7.654,5.41c-1.266,0.913-2.545,1.807-3.785,2.751l-3.652,2.919
		l-3.648,2.915l-1.822,1.456c-0.604,0.489-1.172,1.021-1.76,1.529c-2.328,2.057-4.654,4.112-6.977,6.165
		c-9.029,8.493-17.534,17.454-25.18,27.025c-1.955,2.354-3.71,4.864-5.56,7.287l-2.739,3.658l-2.56,3.777
		c-1.682,2.53-3.451,4.995-5.036,7.573c-1.559,2.593-3.114,5.181-4.667,7.765l-1.164,1.934l-1.069,1.988l-2.133,3.968
		c-1.415,2.645-2.882,5.252-4.112,7.978c-1.283,2.694-2.564,5.383-3.842,8.066c-1.14,2.743-2.278,5.481-3.414,8.212
		c-0.556,1.369-1.15,2.721-1.673,4.099l-1.488,4.162c-0.968,2.778-2.029,5.513-2.915,8.301c-1.671,5.611-3.506,11.133-4.793,16.783
		c-0.352,1.402-0.704,2.803-1.055,4.202l-0.527,2.096c-0.169,0.7-0.288,1.411-0.435,2.115c-0.561,2.82-1.121,5.633-1.68,8.439
		l-0.419,2.1l-0.319,2.117c-0.208,1.41-0.416,2.819-0.624,4.226c-0.211,1.405-0.421,2.808-0.631,4.209l-0.319,2.098
		c-0.089,0.701-0.146,1.407-0.221,2.11c-0.549,5.621-1.229,11.229-1.409,16.703c-0.075,1.373-0.15,2.744-0.225,4.113
		c-0.057,1.385-0.198,2.693-0.171,4.147c-0.017,2.849-0.033,5.69-0.05,8.522l-0.019,2.122l-0.01,1.06l-0.005,0.53
		c-0.006,0.22,0.015-0.01,0.017,0.33c0.057,1.371,0.115,2.741,0.172,4.108c0.113,2.732,0.225,5.456,0.337,8.171
		c0.198,2.709,0.46,5.404,0.684,8.091c0.248,2.685,0.402,5.371,0.828,8.017c0.36,2.653,0.718,5.297,1.076,7.931l0.259,1.975
		c0.099,0.656,0.234,1.305,0.348,1.957c0.238,1.303,0.476,2.603,0.714,3.901c0.494,2.592,0.901,5.191,1.457,7.749
		c0.591,2.551,1.179,5.093,1.765,7.625c0.289,1.267,0.577,2.531,0.864,3.794c0.35,1.246,0.699,2.49,1.047,3.731
		c0.697,2.483,1.391,4.956,2.082,7.419c0.315,1.241,0.779,2.433,1.167,3.647c0.397,1.211,0.793,2.419,1.189,3.624
		c0.395,1.206,0.789,2.409,1.182,3.611l0.589,1.8c0.206,0.596,0.446,1.179,0.667,1.768c6.952,18.897,15.609,36.45,25.538,52.349
		c9.883,15.937,21.147,30.118,32.953,42.608c11.802,12.508,24.27,23.231,36.789,32.246c1.581,1.106,3.15,2.203,4.705,3.291
		c1.564,1.077,3.077,2.21,4.68,3.169c3.169,1.988,6.285,3.942,9.345,5.862c3.157,1.764,6.258,3.497,9.3,5.197
		c1.506,0.887,3.086,1.586,4.609,2.364c1.534,0.759,3.053,1.511,4.557,2.255c12.134,5.719,23.672,10.271,34.413,13.353
		c21.407,6.482,39.04,8.617,50.95,9.443c1.492,0.118,2.898,0.229,4.215,0.333c1.314,0.12,2.562,0.094,3.706,0.144
		c2.294,0.063,4.225,0.116,5.78,0.159C323.988,618.268,325.579,618.311,325.735,618.316z"/>
</g>
<g>
	<path d="M116.013,410.58v-50.668h17.365c2.737,0,5.197,0.273,7.377,0.817c2.18,0.545,4.025,1.375,5.533,2.489
		c1.508,1.114,2.662,2.535,3.463,4.263c0.8,1.728,1.201,3.776,1.201,6.142c0,2.32-0.626,4.408-1.879,6.264
		c-1.253,1.856-3.086,3.294-5.498,4.315c1.462,0.394,2.732,0.969,3.811,1.723c1.079,0.754,1.972,1.641,2.68,2.662
		c0.708,1.021,1.235,2.146,1.583,3.376c0.348,1.23,0.522,2.506,0.522,3.828c0,2.436-0.4,4.576-1.201,6.421
		c-0.8,1.844-1.961,3.387-3.48,4.628c-1.52,1.242-3.364,2.175-5.533,2.802c-2.17,0.626-4.623,0.94-7.36,0.94H116.013z
		 M124.818,381.244h8.63c2.737,0,4.877-0.62,6.421-1.861c1.543-1.241,2.314-2.999,2.314-5.273c0-2.506-0.713-4.315-2.14-5.429
		c-1.427-1.114-3.649-1.67-6.664-1.67h-8.561V381.244z M124.818,387.716v15.834h9.779c1.438,0,2.709-0.186,3.811-0.557
		c1.102-0.371,2.024-0.899,2.767-1.584c0.742-0.684,1.299-1.502,1.67-2.453c0.371-0.951,0.557-2.007,0.557-3.167
		c0-2.506-0.661-4.478-1.984-5.916c-1.322-1.438-3.468-2.158-6.438-2.158H124.818z"/>
	<path d="M182.654,410.58c-0.232-0.441-0.423-0.963-0.574-1.566c-0.151-0.603-0.284-1.253-0.4-1.949
		c-0.557,0.58-1.178,1.125-1.862,1.636c-0.684,0.51-1.439,0.957-2.262,1.339c-0.824,0.384-1.717,0.684-2.68,0.905
		c-0.963,0.22-1.989,0.331-3.08,0.331c-1.879,0-3.608-0.285-5.185-0.852c-1.578-0.568-2.929-1.358-4.054-2.366
		c-1.126-1.01-2.007-2.199-2.645-3.567c-0.638-1.369-0.957-2.854-0.957-4.454c0-2.018,0.383-3.805,1.148-5.359
		c0.766-1.554,1.879-2.854,3.341-3.898s3.254-1.838,5.377-2.384c2.123-0.544,4.541-0.817,7.256-0.817h5.324v-2.471
		c0-1.949-0.545-3.509-1.636-4.68c-1.091-1.172-2.749-1.758-4.976-1.758c-0.998,0-1.902,0.134-2.714,0.4
		c-0.812,0.268-1.502,0.626-2.071,1.08c-0.569,0.452-1.009,0.991-1.322,1.618c-0.313,0.626-0.47,1.299-0.47,2.018h-8.456
		c0-1.485,0.365-2.917,1.096-4.298c0.731-1.38,1.769-2.61,3.115-3.689c1.345-1.079,2.975-1.943,4.889-2.592
		c1.914-0.65,4.054-0.974,6.421-0.974c2.111,0,4.06,0.273,5.846,0.817c1.786,0.545,3.329,1.357,4.628,2.436
		c1.299,1.079,2.308,2.424,3.028,4.038c0.719,1.612,1.079,3.497,1.079,5.655v16.704c0,3.387,0.475,6.09,1.427,8.108v0.592H182.654z
		 M173.363,404.49c0.974,0,1.885-0.128,2.732-0.383c0.847-0.255,1.612-0.592,2.297-1.009c0.684-0.418,1.282-0.899,1.792-1.444
		c0.51-0.545,0.916-1.097,1.218-1.653v-7.099h-4.559c-3.132,0-5.487,0.545-7.064,1.636c-1.578,1.09-2.366,2.633-2.366,4.628
		c0,0.766,0.127,1.473,0.383,2.123c0.255,0.65,0.638,1.213,1.148,1.688c0.51,0.476,1.131,0.847,1.862,1.114
		C171.536,404.357,172.388,404.49,173.363,404.49z"/>
	<path d="M219.82,400.349c0-0.603-0.099-1.166-0.296-1.687c-0.197-0.523-0.586-1.01-1.166-1.462
		c-0.58-0.453-1.398-0.876-2.453-1.271c-1.056-0.394-2.431-0.766-4.124-1.114c-2.018-0.418-3.857-0.94-5.516-1.566
		c-1.659-0.626-3.08-1.386-4.263-2.28c-1.183-0.892-2.105-1.943-2.767-3.149c-0.661-1.206-0.992-2.598-0.992-4.176
		c0-1.531,0.336-2.987,1.009-4.368c0.673-1.38,1.641-2.592,2.906-3.636c1.264-1.044,2.796-1.874,4.594-2.489
		c1.798-0.614,3.811-0.922,6.038-0.922c2.343,0,4.449,0.308,6.316,0.922c1.867,0.615,3.451,1.462,4.75,2.54
		c1.299,1.079,2.291,2.349,2.975,3.811c0.684,1.462,1.027,3.039,1.027,4.733h-8.456c0-0.719-0.139-1.421-0.418-2.106
		c-0.278-0.684-0.696-1.293-1.253-1.827s-1.247-0.957-2.071-1.27c-0.824-0.314-1.781-0.47-2.871-0.47
		c-1.067,0-1.996,0.134-2.784,0.401c-0.789,0.267-1.444,0.615-1.966,1.044c-0.522,0.429-0.911,0.928-1.166,1.496
		c-0.256,0.569-0.383,1.166-0.383,1.793c0,0.626,0.116,1.183,0.348,1.67c0.232,0.487,0.644,0.928,1.235,1.322
		c0.592,0.394,1.386,0.76,2.384,1.097c0.997,0.336,2.25,0.667,3.758,0.991c2.18,0.464,4.135,1.009,5.864,1.636
		c1.728,0.626,3.19,1.392,4.385,2.297c1.195,0.905,2.105,1.972,2.732,3.202c0.626,1.23,0.94,2.691,0.94,4.385
		c0,1.67-0.36,3.202-1.079,4.594c-0.719,1.392-1.746,2.593-3.08,3.601c-1.334,1.01-2.941,1.793-4.82,2.349s-3.967,0.835-6.264,0.835
		c-2.575,0-4.855-0.365-6.838-1.097c-1.984-0.73-3.649-1.687-4.994-2.871c-1.346-1.183-2.361-2.523-3.045-4.02
		c-0.684-1.496-1.027-3.021-1.027-4.576h8.213c0.07,1.16,0.336,2.134,0.8,2.923c0.464,0.789,1.056,1.427,1.775,1.914
		c0.719,0.487,1.531,0.841,2.436,1.061c0.905,0.221,1.832,0.331,2.784,0.331c2.227,0,3.92-0.423,5.081-1.27
		C219.24,402.825,219.82,401.717,219.82,400.349z"/>
	<path d="M252.079,411.276c-2.784,0-5.29-0.464-7.517-1.392c-2.227-0.928-4.118-2.204-5.672-3.828
		c-1.554-1.624-2.749-3.55-3.584-5.777s-1.253-4.628-1.253-7.203v-1.392c0-2.97,0.44-5.655,1.322-8.056
		c0.882-2.402,2.088-4.443,3.619-6.125c1.531-1.682,3.335-2.98,5.411-3.898c2.076-0.916,4.309-1.374,6.699-1.374
		c2.737,0,5.116,0.458,7.134,1.374c2.018,0.917,3.689,2.199,5.011,3.846c1.322,1.647,2.308,3.608,2.958,5.881
		c0.649,2.274,0.974,4.768,0.974,7.482v3.619h-24.603c0.116,1.462,0.423,2.807,0.922,4.037c0.499,1.23,1.177,2.291,2.036,3.185
		c0.858,0.893,1.873,1.595,3.045,2.105c1.171,0.51,2.5,0.766,3.985,0.766c2.088,0,3.903-0.418,5.446-1.253
		c1.543-0.835,2.883-1.984,4.019-3.445l4.559,4.35c-0.604,0.905-1.352,1.781-2.245,2.628c-0.893,0.847-1.937,1.601-3.132,2.261
		c-1.195,0.662-2.546,1.196-4.054,1.601C255.651,411.072,253.958,411.276,252.079,411.276z M251.07,379.016
		c-2.32,0-4.193,0.812-5.62,2.436c-1.427,1.624-2.337,3.886-2.732,6.786h16.112v-0.626c-0.07-1.114-0.249-2.186-0.539-3.219
		c-0.29-1.032-0.737-1.949-1.34-2.75c-0.604-0.8-1.387-1.438-2.349-1.913C253.639,379.255,252.462,379.016,251.07,379.016z"/>
	<path d="M303.757,389.108h-20.393v21.471h-8.804v-50.668h32.19v7.099h-23.386v15.068h20.393V389.108z"/>
	<path d="M310.577,391.405c0-2.738,0.4-5.272,1.201-7.604c0.8-2.331,1.949-4.355,3.444-6.072c1.497-1.717,3.324-3.062,5.481-4.037
		c2.158-0.974,4.605-1.462,7.343-1.462c2.761,0,5.232,0.487,7.412,1.462c2.181,0.974,4.02,2.32,5.515,4.037
		c1.497,1.717,2.639,3.741,3.428,6.072c0.789,2.332,1.183,4.867,1.183,7.604v0.731c0,2.738-0.394,5.278-1.183,7.621
		c-0.789,2.343-1.931,4.367-3.428,6.073c-1.496,1.704-3.329,3.039-5.498,4.001c-2.169,0.963-4.622,1.445-7.36,1.445
		c-2.761,0-5.226-0.482-7.395-1.445c-2.169-0.962-4.001-2.297-5.498-4.001c-1.496-1.706-2.645-3.73-3.444-6.073
		c-0.801-2.343-1.201-4.884-1.201-7.621V391.405z M319.034,392.136c0,1.694,0.174,3.294,0.522,4.802
		c0.348,1.508,0.893,2.825,1.636,3.95c0.742,1.125,1.687,2.012,2.837,2.662c1.148,0.65,2.511,0.974,4.089,0.974
		c1.554,0,2.905-0.325,4.055-0.974c1.148-0.65,2.088-1.537,2.818-2.662c0.732-1.125,1.276-2.442,1.636-3.95
		c0.359-1.508,0.539-3.109,0.539-4.802v-0.731c0-1.67-0.18-3.253-0.539-4.75c-0.36-1.496-0.911-2.806-1.653-3.932
		c-0.742-1.125-1.687-2.025-2.837-2.697c-1.148-0.673-2.511-1.009-4.089-1.009s-2.929,0.336-4.055,1.009s-2.059,1.572-2.801,2.697
		c-0.742,1.125-1.288,2.436-1.636,3.932c-0.348,1.497-0.522,3.08-0.522,4.75V392.136z"/>
	<path d="M372.451,380.652c-0.557-0.093-1.12-0.162-1.688-0.209c-0.568-0.046-1.154-0.07-1.757-0.07c-2.042,0-3.7,0.394-4.976,1.183
		c-1.276,0.789-2.227,1.879-2.854,3.271v25.752h-8.456v-37.653h8.073l0.209,4.211c0.951-1.531,2.128-2.732,3.533-3.602
		c1.403-0.87,3.056-1.305,4.959-1.305c0.487,0,1.038,0.052,1.653,0.156c0.614,0.104,1.061,0.215,1.339,0.331L372.451,380.652z"/>
	<path d="M407.807,389.108h-20.392v21.471h-8.804v-50.668H410.8v7.099h-23.385v15.068h20.392V389.108z"/>
	<path d="M416.959,363.148c0-1.299,0.411-2.378,1.235-3.236c0.824-0.858,2.001-1.288,3.533-1.288c1.531,0,2.714,0.43,3.55,1.288
		c0.835,0.858,1.253,1.937,1.253,3.236c0,1.276-0.418,2.337-1.253,3.184c-0.835,0.848-2.018,1.271-3.55,1.271
		c-1.531,0-2.709-0.423-3.533-1.271C417.371,365.485,416.959,364.424,416.959,363.148z M425.937,410.58h-8.456v-37.653h8.456V410.58
		z"/>
	<path d="M433.663,391.475c0-2.854,0.348-5.464,1.044-7.83s1.699-4.396,3.01-6.09s2.895-3.004,4.751-3.932
		c1.856-0.928,3.944-1.392,6.264-1.392c2.274,0,4.234,0.388,5.881,1.165c1.647,0.778,3.062,1.885,4.246,3.324l0.383-3.793h7.621
		v36.609c0,2.529-0.418,4.779-1.253,6.751c-0.835,1.972-2.001,3.631-3.497,4.976c-1.497,1.346-3.295,2.372-5.395,3.08
		c-2.1,0.707-4.402,1.061-6.907,1.061c-1.044,0-2.204-0.111-3.48-0.331s-2.564-0.58-3.863-1.078c-1.299-0.5-2.54-1.143-3.724-1.932
		c-1.183-0.789-2.192-1.752-3.028-2.888l4.002-5.081c1.392,1.647,2.906,2.83,4.541,3.55c1.636,0.719,3.324,1.079,5.064,1.079
		c2.807,0,5.023-0.76,6.647-2.28c1.624-1.52,2.436-3.752,2.436-6.698v-2.54c-1.183,1.322-2.575,2.332-4.176,3.028
		s-3.457,1.044-5.568,1.044c-2.297,0-4.367-0.482-6.212-1.445c-1.844-0.962-3.422-2.291-4.733-3.984s-2.314-3.706-3.01-6.038
		c-0.696-2.331-1.044-4.866-1.044-7.603V391.475z M442.084,392.205c0,1.67,0.168,3.243,0.504,4.716s0.865,2.766,1.584,3.88
		c0.719,1.114,1.624,1.99,2.714,2.627c1.09,0.639,2.401,0.957,3.932,0.957c1.902,0,3.457-0.401,4.663-1.2
		c1.206-0.801,2.181-1.862,2.923-3.185v-16.565c-0.742-1.322-1.722-2.366-2.941-3.132c-1.217-0.766-2.743-1.148-4.576-1.148
		c-1.531,0-2.854,0.325-3.967,0.974c-1.114,0.65-2.025,1.531-2.732,2.645s-1.235,2.418-1.583,3.915
		c-0.348,1.496-0.522,3.091-0.522,4.785V392.205z"/>
	<path d="M483.879,377.033c1.299-1.508,2.83-2.685,4.594-3.533c1.763-0.847,3.724-1.27,5.881-1.27c1.833,0,3.503,0.255,5.011,0.766
		c1.508,0.51,2.796,1.328,3.863,2.453c1.067,1.126,1.891,2.588,2.471,4.385c0.58,1.799,0.87,3.973,0.87,6.525v24.22h-8.456v-24.29
		c0-2.598-0.563-4.437-1.688-5.515c-1.125-1.08-2.778-1.619-4.959-1.619c-1.763,0-3.277,0.406-4.541,1.218
		c-1.265,0.812-2.28,1.914-3.045,3.306v26.9h-8.456v-53.452h8.456V377.033z"/>
	<path d="M525.707,363.774v9.152h6.647v6.264h-6.647v21.019c0,0.858,0.093,1.554,0.278,2.088s0.452,0.946,0.8,1.236
		c0.348,0.29,0.759,0.487,1.236,0.591c0.475,0.105,1.003,0.157,1.583,0.157c0.58,0,1.142-0.04,1.688-0.121
		c0.544-0.081,0.968-0.157,1.27-0.227v6.542c-0.673,0.186-1.456,0.366-2.349,0.539c-0.893,0.175-1.966,0.261-3.219,0.261
		c-1.392,0-2.686-0.186-3.88-0.557c-1.195-0.371-2.227-0.974-3.096-1.81c-0.871-0.835-1.549-1.926-2.036-3.271
		c-0.487-1.346-0.731-2.993-0.731-4.941V379.19h-6.194v-6.264h6.194v-9.152H525.707z"/>
</g>
<g>
	<path d="M61.733,683.056h18.142v4.128H56.658v-38.282h5.075V683.056z"/>
	<path d="M96.676,687.71c-1.981,0-3.773-0.342-5.377-1.025c-1.604-0.684-2.976-1.634-4.115-2.853
		c-1.139-1.218-2.016-2.669-2.629-4.351c-0.614-1.683-0.92-3.523-0.92-5.522v-1.104c0-2.314,0.346-4.382,1.039-6.205
		c0.692-1.823,1.617-3.356,2.774-4.601c1.157-1.244,2.48-2.195,3.97-2.853c1.49-0.657,3.041-0.986,4.654-0.986
		c2.033,0,3.786,0.355,5.259,1.065c1.472,0.71,2.686,1.687,3.642,2.932c0.955,1.245,1.661,2.717,2.117,4.417
		c0.455,1.701,0.684,3.55,0.684,5.548v2.182H88.499c0.035,1.315,0.25,2.542,0.644,3.681c0.394,1.14,0.955,2.13,1.683,2.971
		c0.727,0.841,1.604,1.508,2.629,1.998c1.025,0.491,2.187,0.736,3.484,0.736c1.718,0,3.173-0.35,4.365-1.052
		c1.192-0.701,2.235-1.63,3.129-2.787l2.971,2.314c-0.456,0.701-1.008,1.38-1.656,2.038c-0.649,0.657-1.407,1.245-2.274,1.762
		c-0.868,0.517-1.863,0.93-2.984,1.236C99.366,687.556,98.096,687.71,96.676,687.71z M96.071,662.206
		c-0.982,0-1.885,0.18-2.708,0.539c-0.824,0.36-1.56,0.881-2.209,1.564c-0.649,0.684-1.188,1.534-1.617,2.55
		c-0.43,1.017-0.723,2.182-0.881,3.497h14.251v-0.368c-0.053-0.947-0.206-1.884-0.46-2.813c-0.254-0.929-0.649-1.762-1.183-2.498
		c-0.535-0.736-1.223-1.332-2.064-1.788C98.359,662.434,97.316,662.206,96.071,662.206z"/>
	<path d="M129.963,679.638c0-0.526-0.079-1.021-0.237-1.486c-0.158-0.464-0.469-0.902-0.933-1.315
		c-0.465-0.411-1.126-0.793-1.985-1.144c-0.859-0.35-1.99-0.674-3.392-0.973c-1.578-0.333-2.997-0.727-4.259-1.183
		c-1.262-0.456-2.336-1.003-3.221-1.643c-0.885-0.64-1.564-1.397-2.038-2.274c-0.473-0.876-0.71-1.902-0.71-3.076
		c0-1.121,0.25-2.186,0.749-3.195c0.5-1.008,1.205-1.893,2.117-2.656c0.911-0.762,2.016-1.367,3.313-1.814
		c1.297-0.447,2.743-0.67,4.338-0.67c1.7,0,3.221,0.233,4.562,0.697c1.341,0.465,2.48,1.1,3.418,1.906
		c0.938,0.807,1.652,1.748,2.143,2.826c0.491,1.078,0.736,2.231,0.736,3.458h-4.89c0-0.578-0.131-1.161-0.394-1.748
		c-0.263-0.587-0.649-1.113-1.157-1.578c-0.508-0.464-1.131-0.841-1.867-1.131c-0.736-0.289-1.586-0.434-2.55-0.434
		c-1.017,0-1.88,0.118-2.59,0.355s-1.293,0.552-1.748,0.947c-0.456,0.394-0.789,0.841-0.999,1.341
		c-0.21,0.5-0.316,1.012-0.316,1.538s0.087,0.999,0.263,1.42c0.175,0.421,0.508,0.802,0.999,1.144
		c0.491,0.342,1.161,0.657,2.011,0.947c0.85,0.289,1.95,0.583,3.3,0.881c1.735,0.404,3.243,0.859,4.522,1.367
		c1.279,0.509,2.34,1.1,3.181,1.775c0.841,0.675,1.468,1.451,1.88,2.327c0.412,0.877,0.618,1.893,0.618,3.05
		c0,1.245-0.259,2.384-0.776,3.418c-0.517,1.035-1.258,1.919-2.222,2.656c-0.964,0.736-2.121,1.311-3.471,1.722
		c-1.35,0.411-2.849,0.618-4.496,0.618c-1.893,0-3.563-0.263-5.009-0.789c-1.446-0.526-2.66-1.223-3.642-2.09
		c-0.982-0.868-1.727-1.857-2.235-2.971c-0.508-1.113-0.762-2.257-0.762-3.431h4.864c0.053,0.999,0.293,1.837,0.723,2.511
		c0.429,0.675,0.968,1.223,1.617,1.643c0.648,0.421,1.358,0.719,2.13,0.894c0.771,0.176,1.542,0.263,2.314,0.263
		c0.999,0,1.875-0.105,2.629-0.316c0.754-0.21,1.389-0.5,1.906-0.868c0.517-0.368,0.907-0.802,1.17-1.301
		C129.831,680.756,129.963,680.217,129.963,679.638z"/>
	<path d="M157.728,679.638c0-0.526-0.079-1.021-0.237-1.486c-0.158-0.464-0.469-0.902-0.933-1.315
		c-0.465-0.411-1.126-0.793-1.985-1.144c-0.859-0.35-1.99-0.674-3.392-0.973c-1.578-0.333-2.997-0.727-4.259-1.183
		c-1.262-0.456-2.336-1.003-3.221-1.643c-0.885-0.64-1.564-1.397-2.038-2.274c-0.473-0.876-0.71-1.902-0.71-3.076
		c0-1.121,0.25-2.186,0.749-3.195c0.5-1.008,1.205-1.893,2.117-2.656c0.911-0.762,2.016-1.367,3.313-1.814
		c1.297-0.447,2.743-0.67,4.338-0.67c1.7,0,3.221,0.233,4.562,0.697c1.341,0.465,2.48,1.1,3.418,1.906
		c0.938,0.807,1.652,1.748,2.143,2.826c0.491,1.078,0.736,2.231,0.736,3.458h-4.89c0-0.578-0.131-1.161-0.394-1.748
		c-0.263-0.587-0.649-1.113-1.157-1.578c-0.508-0.464-1.131-0.841-1.867-1.131c-0.736-0.289-1.586-0.434-2.55-0.434
		c-1.017,0-1.88,0.118-2.59,0.355c-0.71,0.237-1.293,0.552-1.748,0.947c-0.456,0.394-0.789,0.841-0.999,1.341
		s-0.316,1.012-0.316,1.538s0.087,0.999,0.263,1.42c0.175,0.421,0.508,0.802,0.999,1.144c0.491,0.342,1.161,0.657,2.011,0.947
		c0.85,0.289,1.95,0.583,3.3,0.881c1.735,0.404,3.243,0.859,4.522,1.367c1.279,0.509,2.34,1.1,3.181,1.775
		c0.841,0.675,1.468,1.451,1.88,2.327c0.412,0.877,0.618,1.893,0.618,3.05c0,1.245-0.259,2.384-0.776,3.418
		c-0.517,1.035-1.258,1.919-2.222,2.656c-0.964,0.736-2.121,1.311-3.471,1.722c-1.35,0.411-2.849,0.618-4.496,0.618
		c-1.893,0-3.563-0.263-5.009-0.789c-1.446-0.526-2.66-1.223-3.642-2.09c-0.982-0.868-1.727-1.857-2.235-2.971
		c-0.508-1.113-0.762-2.257-0.762-3.431h4.864c0.053,0.999,0.293,1.837,0.723,2.511c0.429,0.675,0.968,1.223,1.617,1.643
		c0.648,0.421,1.358,0.719,2.13,0.894c0.771,0.176,1.542,0.263,2.314,0.263c0.999,0,1.875-0.105,2.629-0.316
		c0.754-0.21,1.389-0.5,1.906-0.868c0.517-0.368,0.907-0.802,1.17-1.301S157.728,680.217,157.728,679.638z"/>
	<path d="M191.278,675.116l0.736,5.048l1.078-4.549l7.572-26.714h4.259l7.388,26.714l1.052,4.628l0.815-5.153l5.942-26.188h5.075
		l-9.281,38.282h-4.601l-7.888-27.897l-0.605-2.919l-0.605,2.919l-8.177,27.897h-4.601l-9.255-38.282h5.048L191.278,675.116z"/>
	<path d="M227.93,672.697c0-2.068,0.302-3.983,0.907-5.745c0.605-1.762,1.464-3.29,2.577-4.588c1.113-1.297,2.467-2.314,4.062-3.05
		c1.595-0.736,3.383-1.104,5.364-1.104c2.016,0,3.826,0.368,5.429,1.104s2.966,1.753,4.089,3.05c1.122,1.298,1.98,2.826,2.577,4.588
		c0.596,1.762,0.894,3.677,0.894,5.745v0.578c0,2.069-0.298,3.983-0.894,5.745c-0.596,1.762-1.455,3.287-2.577,4.575
		c-1.122,1.288-2.48,2.297-4.075,3.024c-1.595,0.727-3.392,1.091-5.39,1.091s-3.795-0.364-5.39-1.091
		c-1.595-0.727-2.954-1.735-4.075-3.024c-1.122-1.288-1.985-2.813-2.59-4.575c-0.605-1.762-0.907-3.676-0.907-5.745V672.697z
		 M232.821,673.275c0,1.42,0.166,2.761,0.5,4.023c0.333,1.262,0.837,2.371,1.512,3.326c0.675,0.956,1.516,1.714,2.524,2.274
		c1.008,0.561,2.187,0.841,3.536,0.841c1.332,0,2.506-0.28,3.523-0.841c1.017-0.561,1.858-1.319,2.524-2.274
		c0.666-0.955,1.17-2.064,1.512-3.326c0.342-1.262,0.513-2.603,0.513-4.023v-0.578c0-1.402-0.171-2.738-0.513-4.01
		c-0.342-1.271-0.85-2.383-1.525-3.339c-0.675-0.955-1.521-1.718-2.537-2.287c-1.017-0.569-2.2-0.855-3.55-0.855
		c-1.332,0-2.498,0.285-3.497,0.855c-0.999,0.57-1.836,1.332-2.511,2.287c-0.675,0.956-1.179,2.069-1.512,3.339
		c-0.333,1.271-0.5,2.608-0.5,4.01V673.275z"/>
	<path d="M273.68,663.1c-0.421-0.07-0.811-0.118-1.17-0.145c-0.36-0.026-0.767-0.039-1.223-0.039c-1.683,0-3.055,0.368-4.115,1.104
		c-1.061,0.736-1.854,1.727-2.379,2.971v20.193h-4.864v-28.449h4.733l0.079,3.287c0.736-1.174,1.656-2.103,2.761-2.787
		s2.445-1.025,4.023-1.025c0.35,0,0.754,0.039,1.209,0.118c0.456,0.079,0.771,0.162,0.947,0.25V663.1z"/>
	<path d="M286.09,674.011l-3.05,3.181v9.991h-4.864v-40.386h4.864v24.426l2.603-3.129l8.861-9.36h5.916L289.35,670.62l12.358,16.565
		h-5.706L286.09,674.011z"/>
	<path d="M305.547,684.634c0-0.841,0.25-1.542,0.749-2.103c0.5-0.561,1.249-0.841,2.248-0.841c0.999,0,1.757,0.281,2.274,0.841
		c0.517,0.561,0.776,1.262,0.776,2.103c0,0.807-0.259,1.482-0.776,2.025c-0.517,0.543-1.275,0.815-2.274,0.815
		c-0.999,0-1.748-0.272-2.248-0.815C305.797,686.115,305.547,685.44,305.547,684.634z"/>
	<path d="M340.227,648.902l12.515,31.236l12.515-31.236h6.547v38.282h-5.048v-14.908l0.473-16.091l-12.568,30.999h-3.865
		l-12.542-30.92l0.5,16.012v14.908h-5.048v-38.282H340.227z"/>
	<path d="M378.668,672.697c0-2.068,0.302-3.983,0.907-5.745c0.605-1.762,1.463-3.29,2.577-4.588c1.113-1.297,2.467-2.314,4.062-3.05
		c1.595-0.736,3.383-1.104,5.364-1.104c2.015,0,3.826,0.368,5.429,1.104c1.604,0.736,2.966,1.753,4.089,3.05
		c1.121,1.298,1.98,2.826,2.577,4.588c0.595,1.762,0.894,3.677,0.894,5.745v0.578c0,2.069-0.298,3.983-0.894,5.745
		c-0.596,1.762-1.455,3.287-2.577,4.575c-1.122,1.288-2.481,2.297-4.075,3.024c-1.595,0.727-3.392,1.091-5.39,1.091
		s-3.795-0.364-5.39-1.091c-1.595-0.727-2.954-1.735-4.075-3.024c-1.122-1.288-1.985-2.813-2.59-4.575
		c-0.605-1.762-0.907-3.676-0.907-5.745V672.697z M383.558,673.275c0,1.42,0.166,2.761,0.5,4.023
		c0.333,1.262,0.837,2.371,1.512,3.326c0.674,0.956,1.516,1.714,2.524,2.274c1.008,0.561,2.186,0.841,3.536,0.841
		c1.332,0,2.506-0.28,3.523-0.841c1.016-0.561,1.858-1.319,2.524-2.274c0.666-0.955,1.17-2.064,1.512-3.326
		c0.342-1.262,0.513-2.603,0.513-4.023v-0.578c0-1.402-0.171-2.738-0.513-4.01c-0.342-1.271-0.851-2.383-1.525-3.339
		c-0.675-0.955-1.521-1.718-2.537-2.287c-1.017-0.569-2.2-0.855-3.55-0.855c-1.332,0-2.498,0.285-3.497,0.855
		c-0.999,0.57-1.837,1.332-2.511,2.287c-0.675,0.956-1.179,2.069-1.512,3.339c-0.333,1.271-0.5,2.608-0.5,4.01V673.275z"/>
	<path d="M424.417,663.1c-0.421-0.07-0.811-0.118-1.17-0.145c-0.36-0.026-0.767-0.039-1.223-0.039c-1.683,0-3.055,0.368-4.115,1.104
		c-1.061,0.736-1.854,1.727-2.38,2.971v20.193h-4.864v-28.449h4.733l0.079,3.287c0.736-1.174,1.656-2.103,2.761-2.787
		c1.104-0.684,2.445-1.025,4.023-1.025c0.35,0,0.753,0.039,1.209,0.118c0.456,0.079,0.771,0.162,0.947,0.25V663.1z"/>
	<path d="M440.193,687.71c-1.981,0-3.773-0.342-5.377-1.025c-1.604-0.684-2.976-1.634-4.115-2.853
		c-1.14-1.218-2.016-2.669-2.629-4.351c-0.614-1.683-0.92-3.523-0.92-5.522v-1.104c0-2.314,0.346-4.382,1.039-6.205
		c0.692-1.823,1.617-3.356,2.774-4.601c1.157-1.244,2.48-2.195,3.97-2.853c1.489-0.657,3.041-0.986,4.654-0.986
		c2.033,0,3.786,0.355,5.259,1.065s2.686,1.687,3.642,2.932c0.955,1.245,1.66,2.717,2.117,4.417c0.456,1.701,0.684,3.55,0.684,5.548
		v2.182h-19.273c0.035,1.315,0.25,2.542,0.644,3.681c0.394,1.14,0.955,2.13,1.683,2.971c0.727,0.841,1.604,1.508,2.629,1.998
		c1.025,0.491,2.186,0.736,3.484,0.736c1.718,0,3.172-0.35,4.365-1.052c1.192-0.701,2.235-1.63,3.129-2.787l2.971,2.314
		c-0.456,0.701-1.008,1.38-1.656,2.038c-0.649,0.657-1.407,1.245-2.274,1.762c-0.868,0.517-1.863,0.93-2.984,1.236
		C442.883,687.556,441.613,687.71,440.193,687.71z M439.588,662.206c-0.982,0-1.885,0.18-2.708,0.539
		c-0.824,0.36-1.561,0.881-2.209,1.564c-0.649,0.684-1.188,1.534-1.617,2.55c-0.43,1.017-0.723,2.182-0.881,3.497h14.251v-0.368
		c-0.053-0.947-0.206-1.884-0.46-2.813c-0.254-0.929-0.649-1.762-1.183-2.498c-0.535-0.736-1.223-1.332-2.064-1.788
		C441.876,662.434,440.832,662.206,439.588,662.206z"/>
	<path d="M491.411,677.508c0-0.894-0.136-1.683-0.408-2.366c-0.272-0.684-0.754-1.31-1.446-1.88c-0.693-0.569-1.626-1.104-2.8-1.604
		c-1.175-0.5-2.665-1.012-4.47-1.538c-1.893-0.543-3.607-1.161-5.14-1.854c-1.534-0.692-2.84-1.489-3.918-2.393
		c-1.078-0.902-1.906-1.933-2.485-3.089c-0.578-1.157-0.868-2.48-0.868-3.97c0-1.489,0.311-2.87,0.933-4.141
		c0.622-1.271,1.503-2.375,2.642-3.313c1.139-0.937,2.506-1.67,4.102-2.195c1.595-0.526,3.374-0.789,5.337-0.789
		c2.156,0,4.075,0.325,5.758,0.973c1.683,0.649,3.098,1.508,4.246,2.577c1.148,1.07,2.02,2.305,2.616,3.707
		c0.595,1.403,0.894,2.849,0.894,4.338h-5.075c0-1.069-0.171-2.059-0.513-2.971c-0.342-0.911-0.864-1.7-1.564-2.366
		c-0.701-0.666-1.578-1.183-2.629-1.551c-1.052-0.368-2.297-0.552-3.734-0.552c-1.35,0-2.524,0.158-3.523,0.473
		c-0.999,0.316-1.824,0.749-2.472,1.302c-0.649,0.552-1.131,1.206-1.446,1.959c-0.316,0.754-0.473,1.578-0.473,2.472
		c0,0.807,0.171,1.543,0.513,2.209c0.342,0.667,0.872,1.28,1.591,1.841c0.718,0.561,1.643,1.078,2.774,1.551
		c1.131,0.473,2.485,0.93,4.062,1.367c2.173,0.614,4.049,1.293,5.627,2.038c1.578,0.745,2.879,1.591,3.904,2.537
		s1.788,2.008,2.287,3.181c0.5,1.175,0.749,2.507,0.749,3.997c0,1.561-0.316,2.971-0.947,4.233c-0.631,1.262-1.53,2.34-2.695,3.234
		c-1.166,0.894-2.568,1.582-4.207,2.064c-1.639,0.482-3.467,0.723-5.482,0.723c-1.175,0-2.349-0.11-3.523-0.329
		c-1.175-0.219-2.301-0.547-3.379-0.986c-1.078-0.438-2.077-0.981-2.997-1.63c-0.92-0.648-1.722-1.402-2.406-2.261
		c-0.684-0.858-1.219-1.823-1.604-2.892c-0.386-1.069-0.578-2.243-0.578-3.523h5.075c0,1.315,0.258,2.441,0.776,3.379
		c0.517,0.938,1.209,1.714,2.077,2.327c0.868,0.614,1.867,1.065,2.997,1.354c1.131,0.289,2.318,0.434,3.563,0.434
		c2.664,0,4.706-0.543,6.126-1.63C490.702,680.865,491.411,679.385,491.411,677.508z"/>
	<path d="M526.223,673.275c0,2.086-0.246,4.01-0.736,5.771c-0.491,1.762-1.206,3.287-2.143,4.575
		c-0.938,1.288-2.09,2.292-3.458,3.011c-1.367,0.718-2.928,1.078-4.68,1.078c-1.788,0-3.352-0.281-4.693-0.841
		c-1.341-0.561-2.494-1.376-3.458-2.445v13.699h-4.864v-39.387h4.443l0.237,3.155c0.964-1.192,2.13-2.103,3.497-2.734
		c1.367-0.631,2.953-0.947,4.759-0.947c1.788,0,3.369,0.351,4.746,1.052c1.376,0.701,2.537,1.687,3.484,2.958
		c0.947,1.271,1.66,2.796,2.143,4.575c0.482,1.779,0.723,3.756,0.723,5.929V673.275z M521.359,672.723
		c0-1.42-0.149-2.756-0.447-4.01c-0.298-1.253-0.762-2.353-1.393-3.3s-1.429-1.696-2.393-2.248
		c-0.964-0.552-2.113-0.828-3.444-0.828c-0.824,0-1.574,0.097-2.248,0.289c-0.675,0.193-1.284,0.465-1.827,0.815
		c-0.544,0.351-1.025,0.767-1.446,1.249c-0.421,0.483-0.789,1.004-1.104,1.564v13.593c0.316,0.561,0.684,1.083,1.104,1.564
		c0.421,0.483,0.902,0.894,1.446,1.236c0.543,0.342,1.157,0.609,1.841,0.802c0.684,0.193,1.446,0.289,2.288,0.289
		c1.315,0,2.449-0.28,3.405-0.841c0.955-0.561,1.748-1.315,2.38-2.261c0.631-0.947,1.095-2.055,1.393-3.326
		c0.298-1.271,0.447-2.616,0.447-4.036V672.723z"/>
	<path d="M531.114,672.697c0-2.068,0.302-3.983,0.907-5.745c0.605-1.762,1.463-3.29,2.577-4.588c1.113-1.297,2.467-2.314,4.062-3.05
		c1.595-0.736,3.383-1.104,5.364-1.104c2.015,0,3.826,0.368,5.429,1.104c1.604,0.736,2.966,1.753,4.089,3.05
		c1.121,1.298,1.98,2.826,2.577,4.588c0.595,1.762,0.894,3.677,0.894,5.745v0.578c0,2.069-0.298,3.983-0.894,5.745
		c-0.596,1.762-1.455,3.287-2.577,4.575c-1.122,1.288-2.481,2.297-4.075,3.024c-1.595,0.727-3.392,1.091-5.39,1.091
		c-1.998,0-3.795-0.364-5.39-1.091c-1.595-0.727-2.954-1.735-4.075-3.024c-1.122-1.288-1.985-2.813-2.59-4.575
		c-0.605-1.762-0.907-3.676-0.907-5.745V672.697z M536.004,673.275c0,1.42,0.166,2.761,0.5,4.023
		c0.333,1.262,0.837,2.371,1.512,3.326c0.674,0.956,1.516,1.714,2.524,2.274c1.008,0.561,2.186,0.841,3.536,0.841
		c1.332,0,2.506-0.28,3.523-0.841c1.016-0.561,1.858-1.319,2.524-2.274c0.666-0.955,1.17-2.064,1.512-3.326
		c0.342-1.262,0.513-2.603,0.513-4.023v-0.578c0-1.402-0.171-2.738-0.513-4.01c-0.342-1.271-0.851-2.383-1.525-3.339
		c-0.675-0.955-1.521-1.718-2.537-2.287c-1.017-0.569-2.2-0.855-3.549-0.855c-1.332,0-2.498,0.285-3.497,0.855
		c-0.999,0.57-1.837,1.332-2.511,2.287c-0.675,0.956-1.179,2.069-1.512,3.339c-0.333,1.271-0.5,2.608-0.5,4.01V673.275z"/>
	<path d="M576.863,663.1c-0.421-0.07-0.811-0.118-1.17-0.145c-0.36-0.026-0.767-0.039-1.223-0.039c-1.683,0-3.055,0.368-4.115,1.104
		c-1.061,0.736-1.854,1.727-2.38,2.971v20.193h-4.864v-28.449h4.733l0.079,3.287c0.736-1.174,1.656-2.103,2.761-2.787
		c1.104-0.684,2.445-1.025,4.023-1.025c0.35,0,0.753,0.039,1.209,0.118c0.456,0.079,0.771,0.162,0.947,0.25V663.1z"/>
	<path d="M589.247,651.847v6.889h5.311v3.76h-5.311v17.643c0,0.736,0.087,1.328,0.263,1.775c0.175,0.447,0.408,0.793,0.697,1.039
		c0.289,0.246,0.622,0.408,0.999,0.486c0.377,0.079,0.766,0.118,1.17,0.118c0.403,0,0.828-0.039,1.275-0.118
		c0.447-0.079,0.793-0.145,1.039-0.197v3.944c-0.386,0.105-0.885,0.219-1.499,0.342c-0.614,0.122-1.359,0.184-2.235,0.184
		c-0.894,0-1.74-0.128-2.537-0.381c-0.798-0.254-1.495-0.679-2.09-1.275c-0.596-0.595-1.069-1.38-1.42-2.353
		c-0.351-0.973-0.526-2.169-0.526-3.589v-17.616h-5.18v-3.76h5.18v-6.889H589.247z"/>
	<path d="M600.343,684.634c0-0.841,0.25-1.542,0.749-2.103c0.5-0.561,1.249-0.841,2.248-0.841s1.757,0.281,2.274,0.841
		c0.517,0.561,0.776,1.262,0.776,2.103c0,0.807-0.259,1.482-0.776,2.025c-0.517,0.543-1.275,0.815-2.274,0.815
		s-1.748-0.272-2.248-0.815C600.593,686.115,600.343,685.44,600.343,684.634z"/>
</g>
</svg>
